<?xml version="1.0" encoding="utf-8"?>
<!-- Generator: Adobe Illustrator 19.0.0, SVG Export Plug-In . SVG Version: 6.00 Build 0)  -->
<svg version="1.1" id="boat" xmlns="http://www.w3.org/2000/svg" xmlns:xlink="http://www.w3.org/1999/xlink" x="0px" y="0px"
	 viewBox="-232 393.3 130.3 54.6" style="enable-background:new -232 393.3 130.3 54.6;" xml:space="preserve">
<style type="text/css">
	.boat{fill:#000000;}
</style>
<path id="boat" d="M-230.7,400.1c0,0,27.5,8.8,41.9,16.5c14.4,7.7,55.8,22,56.9,21.2l-35,3.2c0,0-39.3-1.8-41.1-2
	s-2.9-0.3-3.9-2.2C-212.9,435-228.5,403-230.7,400.1z"/>
<path id="boat" d="M-176.5,408.9c1.6,0.3,2.1,0.6,2.9-0.2c0.8-0.8,4.9-4.2,5.7-4.8c0.8-0.7,1.4-0.8,2.4-0.2
	c1.1,0.6,2.6,2.1,3.5,3c0.9,0.9,2,0.9,3.2,0.7c1.1-0.2,2.5,0.1,17.7-2.7c15.3-2.8,38-4.4,38-4.4c-3.1,0.2-19.1,8.4-26.7,11.9
	c-7.5,3.5-30.6,14.5-30.6,14.5c-2.9-0.4-29.7-14.2-39.8-18s-27.3-9.4-27.3-9.4C-223.5,398.8-178.1,408.5-176.5,408.9z M-165.7,421
	c0.5-2.3,3.3-3.2,5.7-4.2s6.2-0.9,6.2-0.9s-1.5-1.9-6.6-7.1c-5.1-5.2-6.2-5.1-6.2-5.1C-166.3,404.7-165.7,421-165.7,421z"/>
</svg>
