<?xml version="1.0" encoding="utf-8"?>
<!-- Generator: Adobe Illustrator 19.0.0, SVG Export Plug-In . SVG Version: 6.00 Build 0)  -->
<svg version="1.1" id="Capa_1" xmlns="http://www.w3.org/2000/svg" xmlns:xlink="http://www.w3.org/1999/xlink" x="0px" y="0px"
	 viewBox="-224 399.6 145.4 42.3" style="enable-background:new -224 399.6 145.4 42.3;" xml:space="preserve">
<style type="text/css">
	.st0{fill:#000000;}
</style>
<g id="XMLID_3_">
	<g id="XMLID_17_">
		<g id="XMLID_18_">
			<path id="deriva" d="M-214.4,434.9c0,0.7-1.1,1.1-3.2,1.3c-0.1,0-1.6,0-4.3,0c-0.7,0-1-0.3-1-0.9
				c0-0.3,0.2-0.8,0.5-1.5c0.3-0.7,0.5-1.3,0.5-1.8v-5.5c0-1.9,0.1-4.8,0.3-8.6c0.2-3.9,0.3-6.7,0.3-8.6c0-0.6-0.2-1-0.5-1.3
				c-0.5-0.4-0.8-0.7-0.9-0.9c0.3-0.5,2-0.8,5.1-0.8c1.1,0,1.7,0,1.7,0c0.8,0.1,1.2,0.4,1.2,0.9c0,0.3-0.2,0.8-0.7,1.5
				c-0.4,0.7-0.6,1.4-0.6,2l0.1,20.9c0,0.7,0.3,1.3,0.8,2C-214.7,434.2-214.4,434.7-214.4,434.9z M-200.6,421.1
				c0,2.5-0.4,4.6-1.2,6.4c-0.8,1.8-2.1,3.6-3.9,5.2c-1.7,1.5-2.9,2.2-3.9,2.2c-0.9,0-1.3-0.4-1.3-1.2c0-0.4,0.4-1,1.1-1.8
				c0.9-1.1,1.6-2.1,2-3c0.7-1.5,1.1-3.2,1.1-5.1c0-3.2,0-5.3-0.1-6.4c-0.2-2.5-0.7-4.5-1.5-6.2c-0.2-0.3-0.7-0.9-1.5-1.7
				c-0.7-0.7-1.1-1.3-1.1-1.7c0-0.7,0.4-1.1,1.2-1.1c1,0,2.3,0.6,4,1.8c2.2,1.6,3.6,3.4,4.4,5.5C-200.9,415.7-200.6,418-200.6,421.1
				z"/>
			<path id="deriva" d="M-177.3,430c0,1.4-0.3,2.6-0.8,3.7c-0.6,1.4-1.5,2.1-2.7,2.1c-1.4,0-3.5-0.1-6.3-0.2
				c-2.8-0.1-4.9-0.2-6.3-0.2c-1.8,0-2.6-0.4-2.6-1.1c0,0.2,0.2-0.3,0.7-1.4c0.2-0.6,0.4-2.9,0.5-6.8c0.1-2.3,0.1-5.3,0-9
				c-0.1-4.7-0.2-7.7-0.2-9c0-0.9,0.7-1.3,2.2-1.3h8.9c0.4,0,1,0,1.6,0c0.7,0,1.2,0,1.4,0c1.5,0,2.4,0.3,2.8,0.8
				c0.4,0.6,0.6,2.1,0.6,4.4c0,0.9-0.2,1.5-0.7,1.9c-0.1,0-0.5-0.5-1.1-1.5c-0.7-1.1-1.5-2-2.4-2.6c-1.2-1-2.7-1.4-4.4-1.4
				c-1.8,0-2.7,1.8-2.7,5.3c0,0.5,0,1.3,0.1,2.1c0,0.9,0.1,1.5,0.1,1.7c0,1.3,0.5,1.9,1.4,1.9c0.8,0,1.6-0.6,2.4-1.8
				c0.9-1.3,1.5-2.1,1.9-2.2c0.5,0.3,0.7,1.3,0.7,3.1c0,0.2,0,0.8,0.1,1.7c0,0.9,0.1,1.7,0.1,2.3c0,2.8-0.3,4.4-1,4.7
				c-0.6-0.1-1-0.6-1.3-1.6c-0.2-0.9-0.4-1.7-0.7-2.6c-0.4-0.9-1-1.3-1.8-1.3c-1,0-1.6,1.4-1.9,4.2c-0.1,0.9-0.1,2.8-0.1,5.6
				c0,1.3,0.8,2,2.4,2c1.4,0,3.2-0.6,5.3-1.7c2.1-1.1,3.2-2.1,3.2-3l-1.2,0.9v-0.3c0-0.3,0.2-0.6,0.5-0.9c0.3-0.4,0.6-0.6,0.9-0.7
				C-177.5,428-177.3,428.7-177.3,430z"/>
			<path id="deriva" d="M-150,434.7c0,0.7-1,1.1-2.9,1.1c-1.6,0-2.7-0.1-3.5-0.2c-0.9-0.1-2.2-1.9-3.8-5.3
				c-1.6-3.3-2.7-5-3.4-5c-1,0-1.5,1.5-1.5,4.6c0,0.6,0.2,1.4,0.6,2.4s0.6,1.7,0.6,2c0,0.7-2.1,1.1-6.4,1.1c-0.9,0-1.6-0.2-2.1-0.6
				v-0.3c0-0.2,0.4-0.9,1.3-2c0.1-3.2,0.1-6.8,0.1-10.8v-5.8l-0.1-6.3c0,0-0.1-0.3-0.4-0.8c-0.2-0.4-0.3-0.7-0.3-0.7
				c0-0.6,1.6-0.9,4.7-0.9c1.1,0,1.7,0,1.9,0.1c0.8,0.2,1.1,0.6,1.1,1.3c0,0.8-0.2,2-0.5,3.6c-0.3,1.6-0.5,2.9-0.5,3.8
				c0,3.4,0.7,5,2.1,5c1.5,0,2.6-0.7,3.4-2.2c0.6-1.2,0.9-2.6,0.9-4.2c0-0.8-0.3-1.8-0.8-3c-0.5-1.1-0.8-2-0.8-2.6
				c0-0.7,0.3-1.1,1-1.1c1.6,0,3.1,0.7,4.5,2.1c1.3,1.4,2,2.9,2,4.5s-0.4,2.9-1.3,3.9c-0.4,0.4-1.1,1.1-2.4,2
				c-0.9,0.6-1.3,1.2-1.3,1.8c0,0.7,1.3,2.9,3.9,6.7C-151.3,432.4-150,434.4-150,434.7z"/>
			<path id="deriva" d="M-136,407.1c0,0.3-0.3,0.7-1,1.3s-1,1.2-1,1.8l0.1,4.7c0,2-0.1,4.8-0.2,8.4
				c-0.2,3.8-0.3,6.6-0.3,8.4c0,0.9,0.3,1.5,0.8,1.8c0.7,0.4,1.1,0.8,1.2,1.1c-0.4,0.5-1.2,0.8-2.7,0.8c-3.3,0-4.6,0-3.9,0
				c-2-0.1-2.9-0.4-2.9-1c0-0.3,0.2-0.7,0.6-1.4c0.4-0.7,0.6-1.2,0.7-1.6c0.3-7,0.5-12.4,0.5-16.2c0-0.9-0.1-2.2-0.2-4.1
				c-0.1-1.8-0.2-3.1-0.2-3.8l0.2-0.7c0.7-0.3,1.7-0.4,2.9-0.4c0.5,0,1.2,0,2.1,0.1c0.9,0,1.5,0.1,1.9,0.1c0.6,0,1.1,0.2,1.5,0.5
				L-136,407.1L-136,407.1z"/>
			<path id="deriva"  d="M-109.4,408l-0.1,0.4c-1.3,2.9-2.7,6.7-4.1,11.2c-1.1,3.9-2.2,7.7-3.3,11.6
				c-0.3,1.2-0.6,2.3-0.9,3.4c-0.5,1.6-1.2,2.5-1.9,2.5c-0.8,0-1.4-0.5-1.8-1.6c-1.1-2.6-2.5-6.4-4.3-11.4c-1.8-5.2-3.2-9-4.2-11.4
				c-0.4-1.1-1-1.9-1.8-2.5c-0.8-0.6-1.2-1-1.3-1.3c0.3-0.7,1.3-1.2,2.9-1.4c0.6-0.1,1.8-0.1,3.6-0.1c3.3,0,5.3,0.3,5.8,0.8
				c0,0.4-0.4,0.8-1.3,1.2s-1.3,1-1.3,1.7c0,1,0.7,2.9,2.1,5.9c1.4,3.1,2.5,4.7,3.2,4.7c0.4,0,1.3-1.7,2.6-5
				c1.3-3.3,1.9-5.3,1.9-6.1c0-0.4-0.2-0.8-0.5-1.3c-0.4-0.6-0.6-1-0.6-1.3c0.6-0.6,1.6-0.9,3.2-0.9
				C-110.1,407-109.4,407.3-109.4,408z"/>
			<path id="deriva" d="M-111.7,440.4l0.1-0.5c1.8-3.9,3.7-9,5.5-15.2c1.5-5.2,3-10.5,4.5-15.7
				c0.4-1.6,0.8-3.1,1.2-4.7c0.7-2.2,1.6-3.3,2.6-3.3s1.8,0.7,2.4,2.2c1.5,3.5,3.4,8.6,5.8,15.5c2.5,7,4.4,12.2,5.7,15.5
				c0.6,1.4,1.4,2.5,2.5,3.4c1.1,0.8,1.7,1.4,1.8,1.7c-0.4,1-1.7,1.6-3.9,1.9c-0.9,0.1-2.5,0.2-4.9,0.2c-4.5,0-7.1-0.3-7.8-1
				c0-0.5,0.6-1,1.7-1.6c1.2-0.6,1.7-1.4,1.7-2.3c0-1.3-0.9-4-2.8-8c-1.9-4.2-3.4-6.4-4.3-6.4c-0.6,0-1.7,2.2-3.5,6.7
				c-1.7,4.4-2.6,7.1-2.6,8.2c0,0.5,0.2,1.1,0.7,1.8c0.5,0.8,0.8,1.4,0.9,1.8c-0.8,0.9-2.2,1.3-4.3,1.3
				C-110.7,441.7-111.7,441.3-111.7,440.4z"/>
		</g>
	</g>
</g>
</svg>
