<?xml version="1.0" encoding="utf-8"?>
<!-- Generator: Adobe Illustrator 19.0.0, SVG Export Plug-In . SVG Version: 6.00 Build 0)  -->
<svg version="1.1" id="Capa_1" xmlns="http://www.w3.org/2000/svg" xmlns:xlink="http://www.w3.org/1999/xlink" x="0px" y="0px"
	 viewBox="-192 403.8 276.3 54.6" style="enable-background:new -192 403.8 276.3 54.6;" xml:space="preserve">
<g id="XMLID_2_">
	<g id="XMLID_1_">
		<g id="XMLID_32_">
			<path id="XMLID_36_" d="M-186.6,411.2c0,0,27.5,8.8,41.9,16.5c14.4,7.7,55.8,22,56.9,21.2l-35,3.2c0,0-39.3-1.8-41.1-2
				c-1.8-0.2-2.9-0.3-3.9-2.2C-168.8,446.1-184.4,414.1-186.6,411.2z"/>
			<path id="XMLID_33_" d="M-132.4,420c1.6,0.3,2.1,0.6,2.9-0.2c0.8-0.8,4.9-4.2,5.7-4.8c0.8-0.7,1.4-0.8,2.4-0.2
				c1.1,0.6,2.6,2.1,3.5,3c0.9,0.9,2,0.9,3.2,0.7c1.1-0.2,2.5,0.1,17.7-2.7c15.3-2.8,38-4.4,38-4.4c-3.1,0.2-19.1,8.4-26.7,11.9
				c-7.5,3.5-30.6,14.5-30.6,14.5c-2.9-0.4-29.7-14.2-39.8-18c-10.1-3.8-27.3-9.4-27.3-9.4C-179.4,409.9-134,419.6-132.4,420z
				 M-121.6,432.1c0.5-2.3,3.3-3.2,5.7-4.2c2.4-1,6.2-0.9,6.2-0.9s-1.5-1.9-6.6-7.1c-5.1-5.2-6.2-5.1-6.2-5.1
				C-122.2,415.8-121.6,432.1-121.6,432.1z"/>
		</g>
	</g>
	<g id="XMLID_3_">
		<g id="XMLID_17_">
			<g id="XMLID_18_">
				<path id="XMLID_29_" d="M-50.5,444.7c0,0.7-1.1,1.1-3.2,1.3c-0.1,0-1.6,0-4.3,0c-0.7,0-1-0.3-1-0.9c0-0.3,0.2-0.8,0.5-1.5
					c0.3-0.7,0.5-1.3,0.5-1.8v-5.5c0-1.9,0.1-4.8,0.3-8.6c0.2-3.9,0.3-6.7,0.3-8.6c0-0.6-0.2-1-0.5-1.3c-0.5-0.4-0.8-0.7-0.9-0.9
					c0.3-0.5,2-0.8,5.1-0.8c1.1,0,1.7,0,1.7,0c0.8,0.1,1.2,0.4,1.2,0.9c0,0.3-0.2,0.8-0.7,1.5c-0.4,0.7-0.6,1.4-0.6,2l0.1,20.9
					c0,0.7,0.3,1.3,0.8,2C-50.8,444-50.5,444.5-50.5,444.7z M-36.7,430.9c0,2.5-0.4,4.6-1.2,6.4c-0.8,1.8-2.1,3.6-3.9,5.2
					c-1.7,1.5-2.9,2.2-3.9,2.2c-0.9,0-1.3-0.4-1.3-1.2c0-0.4,0.4-1,1.1-1.8c0.9-1.1,1.6-2.1,2-3c0.7-1.5,1.1-3.2,1.1-5.1
					c0-3.2,0-5.3-0.1-6.4c-0.2-2.5-0.7-4.5-1.5-6.2c-0.2-0.3-0.7-0.9-1.5-1.7c-0.7-0.7-1.1-1.3-1.1-1.7c0-0.7,0.4-1.1,1.2-1.1
					c1,0,2.3,0.6,4,1.8c2.2,1.6,3.6,3.4,4.4,5.5C-37,425.5-36.7,427.8-36.7,430.9z"/>
				<path id="XMLID_27_" d="M-13.4,439.8c0,1.4-0.3,2.6-0.8,3.7c-0.6,1.4-1.5,2.1-2.7,2.1c-1.4,0-3.5-0.1-6.3-0.2s-4.9-0.2-6.3-0.2
					c-1.8,0-2.6-0.4-2.6-1.1c0,0.2,0.2-0.3,0.7-1.4c0.2-0.6,0.4-2.9,0.5-6.8c0.1-2.3,0.1-5.3,0-9c-0.1-4.7-0.2-7.7-0.2-9
					c0-0.9,0.7-1.3,2.2-1.3h8.9c0.4,0,1,0,1.6,0c0.7,0,1.2,0,1.4,0c1.5,0,2.4,0.3,2.8,0.8c0.4,0.6,0.6,2.1,0.6,4.4
					c0,0.9-0.2,1.5-0.7,1.9c-0.1,0-0.5-0.5-1.1-1.5c-0.7-1.1-1.5-2-2.4-2.6c-1.2-1-2.7-1.4-4.4-1.4c-1.8,0-2.7,1.8-2.7,5.3
					c0,0.5,0,1.3,0.1,2.1c0,0.9,0.1,1.5,0.1,1.7c0,1.3,0.5,1.9,1.4,1.9c0.8,0,1.6-0.6,2.4-1.8c0.9-1.3,1.5-2.1,1.9-2.2
					c0.5,0.3,0.7,1.3,0.7,3.1c0,0.2,0,0.8,0.1,1.7c0,0.9,0.1,1.7,0.1,2.3c0,2.8-0.3,4.4-1,4.7c-0.6-0.1-1-0.6-1.3-1.6
					c-0.2-0.9-0.4-1.7-0.7-2.6c-0.4-0.9-1-1.3-1.8-1.3c-1,0-1.6,1.4-1.9,4.2c-0.1,0.9-0.1,2.8-0.1,5.6c0,1.3,0.8,2,2.4,2
					c1.4,0,3.2-0.6,5.3-1.7s3.2-2.1,3.2-3l-1.2,0.9v-0.3c0-0.3,0.2-0.6,0.5-0.9c0.3-0.4,0.6-0.6,0.9-0.7
					C-13.6,437.8-13.4,438.5-13.4,439.8z"/>
				<path id="XMLID_25_" d="M13.9,444.5c0,0.7-1,1.1-2.9,1.1c-1.6,0-2.7-0.1-3.5-0.2c-0.9-0.1-2.2-1.9-3.8-5.3c-1.6-3.3-2.7-5-3.4-5
					c-1,0-1.5,1.5-1.5,4.6c0,0.6,0.2,1.4,0.6,2.4s0.6,1.7,0.6,2c0,0.7-2.1,1.1-6.4,1.1c-0.9,0-1.6-0.2-2.1-0.6v-0.3
					c0-0.2,0.4-0.9,1.3-2c0.1-3.2,0.1-6.8,0.1-10.8v-5.8l-0.1-6.3c0,0-0.1-0.3-0.4-0.8c-0.2-0.4-0.3-0.7-0.3-0.7
					c0-0.6,1.6-0.9,4.7-0.9c1.1,0,1.7,0,1.9,0.1c0.8,0.2,1.1,0.6,1.1,1.3c0,0.8-0.2,2-0.5,3.6s-0.5,2.9-0.5,3.8c0,3.4,0.7,5,2.1,5
					c1.5,0,2.6-0.7,3.4-2.2c0.6-1.2,0.9-2.6,0.9-4.2c0-0.8-0.3-1.8-0.8-3c-0.5-1.1-0.8-2-0.8-2.6c0-0.7,0.3-1.1,1-1.1
					c1.6,0,3.1,0.7,4.5,2.1c1.3,1.4,2,2.9,2,4.5s-0.4,2.9-1.3,3.9c-0.4,0.4-1.1,1.1-2.4,2c-0.9,0.6-1.3,1.2-1.3,1.8
					c0,0.7,1.3,2.9,3.9,6.7C12.6,442.2,13.9,444.2,13.9,444.5z"/>
				<path id="XMLID_23_" d="M27.9,416.9c0,0.3-0.3,0.7-1,1.3s-1,1.2-1,1.8l0.1,4.7c0,2-0.1,4.8-0.2,8.4c-0.2,3.8-0.3,6.6-0.3,8.4
					c0,0.9,0.3,1.5,0.8,1.8c0.7,0.4,1.1,0.8,1.2,1.1c-0.4,0.5-1.2,0.8-2.7,0.8c-3.3,0-4.6,0-3.9,0c-2-0.1-2.9-0.4-2.9-1
					c0-0.3,0.2-0.7,0.6-1.4c0.4-0.7,0.6-1.2,0.7-1.6c0.3-7,0.5-12.4,0.5-16.2c0-0.9-0.1-2.2-0.2-4.1c-0.1-1.8-0.2-3.1-0.2-3.8
					l0.2-0.7c0.7-0.3,1.7-0.4,2.9-0.4c0.5,0,1.2,0,2.1,0.1c0.9,0,1.5,0.1,1.9,0.1c0.6,0,1.1,0.2,1.5,0.5L27.9,416.9L27.9,416.9z"/>
				<path id="XMLID_21_" d="M54.5,417.8l-0.1,0.4c-1.3,2.9-2.7,6.7-4.1,11.2c-1.1,3.9-2.2,7.7-3.3,11.6c-0.3,1.2-0.6,2.3-0.9,3.4
					c-0.5,1.6-1.2,2.5-1.9,2.5c-0.8,0-1.4-0.5-1.8-1.6c-1.1-2.6-2.5-6.4-4.3-11.4c-1.8-5.2-3.2-9-4.2-11.4c-0.4-1.1-1-1.9-1.8-2.5
					s-1.2-1-1.3-1.3c0.3-0.7,1.3-1.2,2.9-1.4c0.6-0.1,1.8-0.1,3.6-0.1c3.3,0,5.3,0.3,5.8,0.8c0,0.4-0.4,0.8-1.3,1.2
					c-0.9,0.4-1.3,1-1.3,1.7c0,1,0.7,2.9,2.1,5.9c1.4,3.1,2.5,4.7,3.2,4.7c0.4,0,1.3-1.7,2.6-5c1.3-3.3,1.9-5.3,1.9-6.1
					c0-0.4-0.2-0.8-0.5-1.3c-0.4-0.6-0.6-1-0.6-1.3c0.6-0.6,1.6-0.9,3.2-0.9C53.8,416.8,54.5,417.1,54.5,417.8z"/>
				<path id="XMLID_19_" d="M52.2,450.2l0.1-0.5c1.8-3.9,3.7-9,5.5-15.2c1.5-5.2,3-10.5,4.5-15.7c0.4-1.6,0.8-3.1,1.2-4.7
					c0.7-2.2,1.6-3.3,2.6-3.3s1.8,0.7,2.4,2.2c1.5,3.5,3.4,8.6,5.8,15.5c2.5,7,4.4,12.2,5.7,15.5c0.6,1.4,1.4,2.5,2.5,3.4
					c1.1,0.8,1.7,1.4,1.8,1.7c-0.4,1-1.7,1.6-3.9,1.9c-0.9,0.1-2.5,0.2-4.9,0.2c-4.5,0-7.1-0.3-7.8-1c0-0.5,0.6-1,1.7-1.6
					c1.2-0.6,1.7-1.4,1.7-2.3c0-1.3-0.9-4-2.8-8c-1.9-4.2-3.4-6.4-4.3-6.4c-0.6,0-1.7,2.2-3.5,6.7c-1.7,4.4-2.6,7.1-2.6,8.2
					c0,0.5,0.2,1.1,0.7,1.8c0.5,0.8,0.8,1.4,0.9,1.8c-0.8,0.9-2.2,1.3-4.3,1.3C53.2,451.5,52.2,451.1,52.2,450.2z"/>
			</g>
		</g>
	</g>
</g>
</svg>
